<svg xmlns="http://www.w3.org/2000/svg" viewBox="0 0 128 128" role="img" aria-label="VoiceCtrl">
  <defs>
    <linearGradient id="g" x1="20" y1="12" x2="108" y2="116" gradientUnits="userSpaceOnUse">
      <stop stop-color="#ffc15a"/>
      <stop offset="0.55" stop-color="#f07f2f"/>
      <stop offset="1" stop-color="#191919"/>
    </linearGradient>
    <filter id="s" x="-20%" y="-20%" width="140%" height="140%">
      <feDropShadow dx="0" dy="6" stdDeviation="7" flood-color="#000" flood-opacity="0.45"/>
    </filter>
  </defs>
  <rect width="128" height="128" rx="28" fill="#1f1f1f"/>
  <path d="M25 88c15-37 63-54 80-25 9 16-1 36-20 39-23 4-45-9-60-14Z" fill="url(#g)" filter="url(#s)"/>
  <path d="M34 78c6-20 23-34 43-34 18 0 33 10 40 26" fill="none" stroke="#ffd88b" stroke-width="7" stroke-linecap="round" opacity="0.95"/>
  <g fill="#f5f5f5">
    <rect x="37" y="54" width="8" height="30" rx="4" opacity="0.68"/>
    <rect x="52" y="38" width="8" height="53" rx="4"/>
    <rect x="67" y="28" width="8" height="67" rx="4"/>
    <rect x="82" y="43" width="8" height="45" rx="4"/>
  </g>
  <circle cx="96" cy="33" r="7" fill="#60d394"/>
</svg>
